<svg width="11" height="20" viewBox="0 0 11 20" fill="none" xmlns="http://www.w3.org/2000/svg">
<path d="M9.50001 1.00001H6.83201C3.43401 0.96601 3.00001 3.06901 3.00001 5.34501V7.00001H1.50001C1.43221 6.99095 1.36324 6.99765 1.29845 7.01957C1.23366 7.0415 1.1748 7.07806 1.12643 7.12643C1.07807 7.1748 1.0415 7.23366 1.01958 7.29845C0.99765 7.36324 0.990955 7.43221 1.00001 7.50001V10.5C0.990955 10.5678 0.99765 10.6368 1.01958 10.7016C1.0415 10.7664 1.07807 10.8252 1.12643 10.8736C1.1748 10.922 1.23366 10.9585 1.29845 10.9804C1.36324 11.0024 1.43221 11.0091 1.50001 11H3.00001V18.5C2.99168 18.5679 2.99898 18.6369 3.02136 18.7015C3.04374 18.7662 3.0806 18.8249 3.12913 18.8731C3.17766 18.9214 3.23658 18.9579 3.30138 18.9799C3.36617 19.0019 3.43514 19.0087 3.50301 19H6.55801C6.85301 19.034 7.09201 18.795 6.99801 18.5L7.00001 11H9.50001C9.56781 11.0091 9.63678 11.0024 9.70157 10.9804C9.76636 10.9585 9.82523 10.922 9.87359 10.8736C9.92196 10.8252 9.95852 10.7664 9.98045 10.7016C10.0024 10.6368 10.0091 10.5678 10 10.5V7.50001C10.0091 7.43221 10.0024 7.36324 9.98045 7.29845C9.95852 7.23366 9.92196 7.1748 9.87359 7.12643C9.82523 7.07806 9.76636 7.0415 9.70157 7.01957C9.63678 6.99765 9.56781 6.99095 9.50001 7.00001H6.99701L7.00001 5.50001C7.09701 4.86101 7.09701 4.96501 7.69001 5.00001H9.47901C9.61801 4.96901 9.76601 4.98601 9.87001 4.88501C9.97401 4.78401 10.034 4.64601 9.99901 4.50001V1.50001C10.0082 1.43227 10.0017 1.36331 9.97991 1.29851C9.95811 1.23371 9.92164 1.17481 9.87335 1.12642C9.82505 1.07803 9.76623 1.04144 9.70148 1.01952C9.63672 0.99759 9.56777 0.990915 9.50001 1.00001ZM8.96501 3.94401L7.71101 3.89601C6.15801 3.89601 6.02801 4.73901 6.02801 5.60201L6.02401 7.49801C6.02388 7.56822 6.0376 7.63777 6.06437 7.70267C6.09115 7.76757 6.13046 7.82656 6.18006 7.87625C6.22966 7.92594 6.28857 7.96537 6.35343 7.99227C6.41828 8.01916 6.4878 8.03301 6.55801 8.03301H9.00001V9.96501H6.56001C6.41829 9.96501 6.28237 10.0212 6.18206 10.1214C6.08176 10.2215 6.02528 10.3573 6.02501 10.499L6.02401 18H4.00001V10.5C4.00001 10.205 3.79901 9.96601 3.50301 9.96601H2.00001V8.03401H3.50301C3.57318 8.03412 3.64268 8.02039 3.70754 7.99363C3.7724 7.96686 3.83134 7.92757 3.88101 7.87801C3.98101 7.77701 3.99901 7.64101 3.99901 7.49901V5.34401C3.99901 3.10201 4.45201 2.03401 6.83101 2.03401H8.96401V3.94401H8.96501Z" fill="#FF7900"/>
</svg>
