<svg width="32" height="32" viewBox="0 0 32 32" fill="none" xmlns="http://www.w3.org/2000/svg">
<g clip-path="url(#clip0_371_546)">
<path d="M16 -0.0339966C7.15903 -0.0339966 -0.0349731 7.158 -0.0349731 16C-0.0349731 24.842 7.15903 32.034 16 32.034C24.841 32.034 32.035 24.842 32.035 16C32.035 7.158 24.841 -0.0339966 16 -0.0339966ZM16 30.966C7.74803 30.966 1.03503 24.252 1.03503 16C1.03503 7.748 7.74803 1.034 16 1.034C24.252 1.034 30.965 7.748 30.965 16C30.965 24.252 24.252 30.966 16 30.966Z" fill="#FF7900"/>
<path d="M19.5 7.00001H16.832C13.434 6.96601 13 9.06901 13 11.345V13H11.5C11.4322 12.991 11.3632 12.9976 11.2985 13.0196C11.2337 13.0415 11.1748 13.0781 11.1264 13.1264C11.0781 13.1748 11.0415 13.2337 11.0196 13.2984C10.9976 13.3632 10.991 13.4322 11 13.5V16.5C10.991 16.5678 10.9976 16.6368 11.0196 16.7016C11.0415 16.7664 11.0781 16.8252 11.1264 16.8736C11.1748 16.922 11.2337 16.9585 11.2985 16.9804C11.3632 17.0024 11.4322 17.0091 11.5 17H13V24.5C12.9917 24.5679 12.999 24.6369 13.0214 24.7015C13.0437 24.7662 13.0806 24.8249 13.1291 24.8731C13.1777 24.9214 13.2366 24.9579 13.3014 24.9799C13.3662 25.0019 13.4351 25.0087 13.503 25H16.558C16.853 25.034 17.092 24.795 16.998 24.5L17 17H19.5C19.5678 17.0091 19.6368 17.0024 19.7016 16.9804C19.7664 16.9585 19.8252 16.922 19.8736 16.8736C19.922 16.8252 19.9585 16.7664 19.9804 16.7016C20.0024 16.6368 20.0091 16.5678 20 16.5V13.5C20.0091 13.4322 20.0024 13.3632 19.9804 13.2984C19.9585 13.2337 19.922 13.1748 19.8736 13.1264C19.8252 13.0781 19.7664 13.0415 19.7016 13.0196C19.6368 12.9976 19.5678 12.991 19.5 13H16.997L17 11.5C17.097 10.861 17.097 10.965 17.69 11H19.479C19.618 10.969 19.766 10.986 19.87 10.885C19.974 10.784 20.034 10.646 19.999 10.5V7.50001C20.0082 7.43227 20.0017 7.36331 19.9799 7.29851C19.9581 7.23371 19.9216 7.17481 19.8733 7.12642C19.8251 7.07803 19.7662 7.04144 19.7015 7.01952C19.6367 6.99759 19.5678 6.99091 19.5 7.00001ZM18.965 9.94401L17.711 9.89601C16.158 9.89601 16.028 10.739 16.028 11.602L16.024 13.498C16.0239 13.5682 16.0376 13.6378 16.0644 13.7027C16.0912 13.7676 16.1305 13.8266 16.1801 13.8763C16.2297 13.9259 16.2886 13.9654 16.3534 13.9923C16.4183 14.0192 16.4878 14.033 16.558 14.033H19V15.965H16.56C16.4183 15.965 16.2824 16.0212 16.1821 16.1214C16.0818 16.2215 16.0253 16.3573 16.025 16.499L16.024 24H14V16.5C14 16.205 13.799 15.966 13.503 15.966H12V14.034H13.503C13.5732 14.0341 13.6427 14.0204 13.7075 13.9936C13.7724 13.9669 13.8313 13.9276 13.881 13.878C13.981 13.777 13.999 13.641 13.999 13.499V11.344C13.999 9.10201 14.452 8.03401 16.831 8.03401H18.964V9.94401H18.965Z" fill="#FF7900"/>
</g>
<defs>
<clipPath id="clip0_371_546">
<rect width="32" height="32" fill="white"/>
</clipPath>
</defs>
</svg>
