<svg id="Layer_1" data-name="Layer 1" xmlns="http://www.w3.org/2000/svg" viewBox="0 0 687.06 687.06"><defs><style>.cls-1{fill:#f9e1d0;}.cls-2{fill:#e8aa42;opacity:0.5;}.cls-3{fill:#ff7900;}</style></defs><title>Icona</title><path class="cls-1" d="M0,0H554.71A132.35,132.35,0,0,1,687.06,132.35V687.06a0,0,0,0,1,0,0H132.35A132.35,132.35,0,0,1,0,554.71V0A0,0,0,0,1,0,0Z"/><path class="cls-2" d="M456.33,203.58a202.05,202.05,0,0,1,56,139.95C512.33,455.32,422,546,310.6,546H204.83a30,30,0,0,1-14.8-3.89l163.65,145H684.75a2.3,2.3,0,0,0,2.31-2.31V408Z"/><path class="cls-3" d="M310.6,141.11H204.83a30.1,30.1,0,0,0-30.09,30.1V515.86A30.09,30.09,0,0,0,204.83,546H310.6C422,546,512.33,455.32,512.33,343.53S422,141.11,310.6,141.11Zm89.25,126.63q-6.77,6-17.44,6H349.32v161a19.36,19.36,0,0,1-6.59,15.24q-6.59,5.82-17.26,5.82T308,449.91a19.12,19.12,0,0,1-6.76-15.24v-161H270q-10.68,0-17.44-6a19.54,19.54,0,0,1-6.76-15.38,19.08,19.08,0,0,1,6.76-15.22q6.76-5.8,17.44-5.81H382.41q10.68,0,17.44,5.81a19.08,19.08,0,0,1,6.76,15.22A19.54,19.54,0,0,1,399.85,267.74Z"/></svg>