<svg width="32" height="32" viewBox="0 0 32 32" fill="none" xmlns="http://www.w3.org/2000/svg">
<path d="M15.9193 11.3041C14.9973 11.3041 14.0959 11.5775 13.3293 12.0898C12.5626 12.6021 11.9651 13.3302 11.6122 14.182C11.2594 15.0339 11.1671 15.9712 11.3469 16.8756C11.5268 17.7799 11.9708 18.6106 12.6228 19.2626C13.2748 19.9146 14.1055 20.3586 15.0098 20.5385C15.9142 20.7183 16.8515 20.626 17.7034 20.2732C18.5552 19.9203 19.2833 19.3228 19.7956 18.5561C20.3079 17.7895 20.5813 16.8881 20.5813 15.9661C20.5813 14.7296 20.0901 13.5439 19.2158 12.6696C18.3415 11.7953 17.1558 11.3041 15.9193 11.3041ZM15.9193 19.4119C15.2378 19.4119 14.5716 19.2098 14.0049 18.8312C13.4383 18.4525 12.9966 17.9144 12.7358 17.2847C12.475 16.6551 12.4068 15.9623 12.5397 15.2938C12.6727 14.6254 13.0009 14.0114 13.4828 13.5295C13.9647 13.0476 14.5787 12.7194 15.2471 12.5865C15.9155 12.4535 16.6083 12.5218 17.238 12.7826C17.8676 13.0434 18.4058 13.485 18.7844 14.0517C19.163 14.6184 19.3651 15.2846 19.3651 15.9661C19.3625 16.8791 18.9986 17.754 18.3529 18.3997C17.7073 19.0453 16.8324 19.4092 15.9193 19.4119ZM20.3786 6.03406H11.4601C10.0086 6.03406 8.61657 6.61065 7.59023 7.63699C6.5639 8.66333 5.9873 10.0553 5.9873 11.5068V20.4254C5.9873 21.8768 6.5639 23.2688 7.59023 24.2952C8.61657 25.3215 10.0086 25.8981 11.4601 25.8981H20.3786C21.8301 25.8981 23.2221 25.3215 24.2484 24.2952C25.2748 23.2688 25.8513 21.8768 25.8513 20.4254V11.5068C25.8513 10.0553 25.2748 8.66333 24.2484 7.63699C23.2221 6.61065 21.8301 6.03406 20.3786 6.03406ZM24.6352 20.4254C24.6352 21.5543 24.1867 22.6369 23.3885 23.4352C22.5902 24.2335 21.5075 24.6819 20.3786 24.6819H11.4601C10.3311 24.6819 9.24846 24.2335 8.45019 23.4352C7.65193 22.6369 7.20347 21.5543 7.20347 20.4254V11.5068C7.20347 10.3779 7.65193 9.29521 8.45019 8.49695C9.24846 7.69868 10.3311 7.25022 11.4601 7.25022H20.3786C21.5075 7.25022 22.5902 7.69868 23.3885 8.49695C24.1867 9.29521 24.6352 10.3779 24.6352 11.5068V20.4254ZM22.2028 10.696C22.2028 10.8965 22.1434 11.0924 22.032 11.2591C21.9207 11.4257 21.7624 11.5556 21.5772 11.6324C21.392 11.7091 21.1883 11.7291 20.9917 11.69C20.7951 11.6509 20.6145 11.5544 20.4727 11.4127C20.331 11.2709 20.2345 11.0903 20.1954 10.8937C20.1563 10.6972 20.1763 10.4934 20.253 10.3082C20.3298 10.123 20.4597 9.96472 20.6263 9.85335C20.793 9.74199 20.9889 9.68255 21.1894 9.68255C21.4582 9.68255 21.7159 9.78933 21.906 9.97939C22.0961 10.1695 22.2028 10.4272 22.2028 10.696Z" fill="#FF7900"/>
<path d="M16 0C7.17675 0 0 7.17675 0 16C0 24.8233 7.17675 32 16 32C24.8233 32 32 24.8233 32 16C32 7.17675 24.8233 0 16 0ZM16 30.9343C7.7655 30.9343 1.06574 24.2345 1.06574 16C1.06574 7.7655 7.7655 1.06574 16 1.06574C24.2345 1.06574 30.9343 7.7655 30.9343 16C30.9343 24.2345 24.2345 30.9343 16 30.9343Z" fill="#FF7900"/>
</svg>
