<svg width="21" height="20" viewBox="0 0 21 20" fill="none" xmlns="http://www.w3.org/2000/svg">
<path d="M10.9193 5.30411C9.99727 5.30411 9.09593 5.57753 8.32927 6.08979C7.56262 6.60206 6.96508 7.33016 6.61223 8.18202C6.25937 9.03388 6.16705 9.97125 6.34693 10.8756C6.52682 11.7799 6.97083 12.6106 7.62281 13.2626C8.2748 13.9146 9.10549 14.3586 10.0098 14.5385C10.9142 14.7183 11.8515 14.626 12.7034 14.2732C13.5552 13.9203 14.2833 13.3228 14.7956 12.5561C15.3079 11.7895 15.5813 10.8881 15.5813 9.96608C15.5813 8.72965 15.0901 7.54386 14.2158 6.66957C13.3415 5.79528 12.1558 5.30411 10.9193 5.30411ZM10.9193 13.4119C10.2378 13.4119 9.5716 13.2098 9.00494 12.8312C8.43828 12.4525 7.99662 11.9144 7.73582 11.2847C7.47501 10.6551 7.40677 9.96225 7.53973 9.29383C7.67269 8.62541 8.00087 8.01143 8.48277 7.52953C8.96468 7.04762 9.57866 6.71944 10.2471 6.58648C10.9155 6.45353 11.6083 6.52177 12.238 6.78257C12.8676 7.04338 13.4058 7.48503 13.7844 8.05169C14.163 8.61835 14.3651 9.28456 14.3651 9.96608C14.3625 10.8791 13.9986 11.754 13.3529 12.3997C12.7073 13.0453 11.8324 13.4092 10.9193 13.4119ZM15.3786 0.0340576H6.46005C5.00859 0.0340576 3.61657 0.610649 2.59023 1.63699C1.5639 2.66333 0.987305 4.05534 0.987305 5.5068V14.4254C0.987305 15.8768 1.5639 17.2688 2.59023 18.2952C3.61657 19.3215 5.00859 19.8981 6.46005 19.8981H15.3786C16.8301 19.8981 18.2221 19.3215 19.2484 18.2952C20.2748 17.2688 20.8513 15.8768 20.8513 14.4254V5.5068C20.8513 4.05534 20.2748 2.66333 19.2484 1.63699C18.2221 0.610649 16.8301 0.0340576 15.3786 0.0340576ZM19.6352 14.4254C19.6352 15.5543 19.1867 16.6369 18.3885 17.4352C17.5902 18.2335 16.5075 18.6819 15.3786 18.6819H6.46005C5.33113 18.6819 4.24846 18.2335 3.45019 17.4352C2.65193 16.6369 2.20347 15.5543 2.20347 14.4254V5.5068C2.20347 4.37789 2.65193 3.29521 3.45019 2.49695C4.24846 1.69868 5.33113 1.25022 6.46005 1.25022H15.3786C16.5075 1.25022 17.5902 1.69868 18.3885 2.49695C19.1867 3.29521 19.6352 4.37789 19.6352 5.5068V14.4254ZM17.2028 4.69603C17.2028 4.89647 17.1434 5.09242 17.032 5.25908C16.9207 5.42574 16.7624 5.55564 16.5772 5.63235C16.392 5.70906 16.1883 5.72913 15.9917 5.69002C15.7951 5.65092 15.6145 5.55439 15.4727 5.41266C15.331 5.27092 15.2345 5.09034 15.1954 4.89374C15.1563 4.69715 15.1763 4.49337 15.253 4.30819C15.3298 4.123 15.4597 3.96472 15.6263 3.85335C15.793 3.74199 15.9889 3.68255 16.1894 3.68255C16.4582 3.68255 16.7159 3.78933 16.906 3.97939C17.0961 4.16946 17.2028 4.42724 17.2028 4.69603Z" fill="#FF7900"/>
</svg>
