<svg id="Layer_1" data-name="Layer 1" xmlns="http://www.w3.org/2000/svg" viewBox="0 0 941.4 435.42"><defs><style>.cls-1{fill:#3f3d56;}.cls-2{fill:#ff7901;}.cls-3{fill:#d0cde1;}.cls-4{fill:#2f2e41;}.cls-5{fill:#fff;}.cls-6{fill:#f2f2f2;}.cls-7{fill:#e6e6e6;}</style></defs><path class="cls-1" d="M798.85,5.36H538.68V0h-118V5.36H159.47A17.6,17.6,0,0,0,141.87,23h0V379.21a17.6,17.6,0,0,0,17.6,17.6H798.85a17.6,17.6,0,0,0,17.6-17.6h0V23a17.6,17.6,0,0,0-17.6-17.6Z"/><rect class="cls-2" x="165.46" y="36.46" width="627.39" height="353.91"/><circle class="cls-2" cx="478.62" cy="20.38" r="6.43"/><path class="cls-1" d="M756.84,81.51H727.1V51.77h29.74Zm-28.45-1.3h27.15V53.06H728.39Z"/><path class="cls-1" d="M834.06,383.94H772.84v-4.41a.88.88,0,0,0-.88-.87H751a.87.87,0,0,0-.88.87h0v4.41H737v-4.41a.87.87,0,0,0-.87-.87h-21a.87.87,0,0,0-.88.87h0v4.41H701.11v-4.41a.87.87,0,0,0-.87-.87h-21a.87.87,0,0,0-.87.87h0v4.41H665.25v-4.41a.87.87,0,0,0-.88-.87h-21a.88.88,0,0,0-.88.87h0v4.41H629.38v-4.41a.87.87,0,0,0-.87-.87h-21a.87.87,0,0,0-.88.87h0v4.41H593.52v-4.41a.87.87,0,0,0-.87-.87h-21a.87.87,0,0,0-.87.87h0v4.41H557.66v-4.41a.87.87,0,0,0-.88-.87H392.34a.88.88,0,0,0-.88.87h0v4.41H378.34v-4.41a.87.87,0,0,0-.87-.87h-21a.87.87,0,0,0-.88.87h0v4.41H342.48v-4.41a.87.87,0,0,0-.87-.87h-21a.87.87,0,0,0-.87.87h0v4.41H306.62v-4.41a.87.87,0,0,0-.88-.87h-21a.87.87,0,0,0-.87.87h0v4.41H270.76v-4.41a.88.88,0,0,0-.88-.87h-21a.87.87,0,0,0-.88.87h0v4.41H234.89v-4.41a.87.87,0,0,0-.87-.87H213a.87.87,0,0,0-.87.87h0v4.41H199v-4.41a.87.87,0,0,0-.88-.87h-21a.87.87,0,0,0-.87.87h0v4.41H136.05a21,21,0,0,0-21,21h0v9.5a21,21,0,0,0,21,21h698a21,21,0,0,0,21-21v-9.5A21,21,0,0,0,834.06,383.94Z"/><path class="cls-1" d="M754.07,233.67h-202v-115h202Zm-200-2h198v-111h-198Z"/><path class="cls-1" d="M384.07,256.67h-180v-112h180Zm-178-2h176v-108h-176Z"/><path class="cls-3" d="M288.17,213.67l-.18-2.24c-.51-4.64,1-9.71,5.34-14.87,3.87-4.56,6-7.91,6-11.78,0-4.39-2.76-7.31-8.17-7.4a15.31,15.31,0,0,0-8.69,2.67l-2.06-5.42c2.83-2.07,7.74-3.44,12.29-3.44,9.89,0,14.37,6.1,14.37,12.64,0,5.85-3.27,10.06-7.4,15-3.78,4.47-5.16,8.26-4.9,12.64l.08,2.24Zm-1.9,12A5.1,5.1,0,0,1,291,220.3h.42c3,0,5.08,2.24,5.08,5.42a5.12,5.12,0,0,1-10.24.42Z"/><path class="cls-3" d="M647.17,188.67l-.18-2.24c-.51-4.64,1-9.71,5.34-14.87,3.87-4.56,6-7.91,6-11.78,0-4.39-2.76-7.31-8.17-7.4a15.31,15.31,0,0,0-8.69,2.67l-2.06-5.42c2.83-2.07,7.74-3.44,12.29-3.44,9.89,0,14.37,6.1,14.37,12.64,0,5.85-3.27,10.06-7.4,15-3.78,4.47-5.16,8.26-4.9,12.64l.08,2.24Zm-1.9,12A5.1,5.1,0,0,1,650,195.3h.42c3,0,5.08,2.24,5.08,5.42a5.12,5.12,0,0,1-10.24.42Z"/><circle class="cls-4" cx="482.69" cy="260.85" r="86.29"/><polygon class="cls-4" points="449.37 379.02 423.57 374.35 431.94 320.48 457.73 325.15 449.37 379.02"/><rect class="cls-4" x="468.76" y="342.16" width="46.97" height="26.22" transform="translate(54.97 776.35) rotate(-79.74)"/><ellipse class="cls-4" cx="496.78" cy="378.91" rx="8.19" ry="21.85" transform="translate(27.07 790.89) rotate(-78.59)"/><ellipse class="cls-4" cx="442.81" cy="378.97" rx="8.19" ry="21.85" transform="translate(8.97 768.18) rotate(-82.45)"/><circle class="cls-5" cx="488.73" cy="239.74" r="29.49"/><circle class="cls-1" cx="500.86" cy="229.17" r="9.83"/><path class="cls-5" d="M414.62,167c-1.3-31.94,26.24-59,61.5-60.44s64.9,23.31,66.2,55.25S519.1,201,483.84,202.42,415.92,198.92,414.62,167Z"/><ellipse class="cls-4" cx="562.37" cy="245.13" rx="43.15" ry="13.54" transform="translate(-40.55 131.84) rotate(-12.91)"/><ellipse class="cls-4" cx="392.98" cy="273.3" rx="43.15" ry="13.54" transform="translate(-51.13 94.71) rotate(-12.91)"/><path class="cls-5" d="M459,294.86a19.66,19.66,0,0,0,38.7,7c1.93-10.68-6.33-14.47-17-16.4S460.93,284.17,459,294.86Z"/><rect class="cls-3" x="154.53" y="13.12" width="141.89" height="134.97"/><rect class="cls-5" x="170.66" y="29.25" width="109.64" height="83.84"/><rect class="cls-6" x="170.55" y="122.98" width="59.64" height="3.14"/><rect class="cls-6" x="170.55" y="132.4" width="59.64" height="3.14"/><circle class="cls-1" cx="190.17" cy="71.19" r="12.56"/><circle class="cls-2" cx="225.48" cy="71.19" r="12.56"/><circle class="cls-7" cx="260.79" cy="71.19" r="12.56" transform="matrix(0.16, -0.99, 0.99, 0.16, 148.75, 317.21)"/><circle class="cls-1" cx="225.48" cy="20.97" r="6.28"/><rect class="cls-3" x="222.02" y="274.46" width="141.89" height="134.97"/><rect class="cls-5" x="238.15" y="290.58" width="109.64" height="83.84"/><rect class="cls-2" x="262.27" y="304.36" width="38.44" height="38.44"/><path class="cls-1" d="M277,314v46.68h46.67V314Zm44.65,44.65H279V316h42.63Z"/><rect class="cls-6" x="238.04" y="382.75" width="59.64" height="3.14"/><circle class="cls-1" cx="292.97" cy="282.31" r="6.28"/><rect class="cls-3" x="591.44" y="234.05" width="141.89" height="134.97"/><rect class="cls-5" x="607.56" y="250.18" width="109.64" height="83.84"/><rect class="cls-1" x="650.59" y="315.81" width="23.59" height="6.99"/><rect class="cls-1" x="622.07" y="261.39" width="80.62" height="3"/><rect class="cls-1" x="622.07" y="270.88" width="80.62" height="3"/><rect class="cls-1" x="622.07" y="280.36" width="80.62" height="3"/><rect class="cls-1" x="622.07" y="289.85" width="80.62" height="3"/><rect class="cls-1" x="622.07" y="299.34" width="80.62" height="3"/><rect class="cls-6" x="607.45" y="342.34" width="59.64" height="3.14"/><rect class="cls-6" x="607.45" y="350.19" width="83.18" height="3.14"/><circle class="cls-1" cx="662.38" cy="241.9" r="6.28"/></svg>