<svg id="Layer_1" data-name="Layer 1" xmlns="http://www.w3.org/2000/svg" viewBox="0 0 618.03 370.55"><defs><style>.cls-1{fill:#f0f0f0;}.cls-2{fill:#fff;}.cls-3{fill:#e4e4e4;}.cls-4{fill:#ff7901;}.cls-5{fill:#3f3d56;}</style></defs><path class="cls-1" d="M540.29,300H20.71A20.73,20.73,0,0,1,0,279.29V20.71A20.73,20.73,0,0,1,20.71,0H540.29A20.73,20.73,0,0,1,561,20.71V279.29A20.73,20.73,0,0,1,540.29,300Z"/><path class="cls-2" d="M597.33,370.55H77.74A20.73,20.73,0,0,1,57,349.85V91.26A20.75,20.75,0,0,1,77.74,70.55H597.33A20.73,20.73,0,0,1,618,91.26V349.85A20.72,20.72,0,0,1,597.33,370.55Z"/><path class="cls-3" d="M597.33,370.55H77.74A20.73,20.73,0,0,1,57,349.85V91.26A20.75,20.75,0,0,1,77.74,70.55H597.33A20.73,20.73,0,0,1,618,91.26V349.85A20.72,20.72,0,0,1,597.33,370.55ZM77.74,73.55A17.75,17.75,0,0,0,60,91.26V349.85a17.73,17.73,0,0,0,17.71,17.7H597.33a17.72,17.72,0,0,0,17.7-17.7V91.26a17.73,17.73,0,0,0-17.7-17.71Z"/><path class="cls-4" d="M117.64,325.28H533.12V254.07a56.38,56.38,0,0,0-17.29-40.16l-.12-.11c-7.42-7.45-32.22-26.35-57.88-24.75-13.55.85-25.16,7.38-34.49,19.42-29,37.49-67.2,24.84-87.36,14-17.76-9.59-35.91-14.1-53.93-13.38-25.24,1-60.76,10.28-86.67,49-9.89,14.77-31.41,34.81-77.74,46.59Z"/><path class="cls-5" d="M556.63,326.94H118.44a1.37,1.37,0,0,1-1.37-1.37v-210a1.37,1.37,0,0,1,2.74,0V324.19H556.63a1.38,1.38,0,0,1,0,2.75Z"/><circle class="cls-5" cx="281.13" cy="211.21" r="8.23"/><circle class="cls-5" cx="442.51" cy="189.69" r="8.23"/><circle class="cls-5" cx="361.82" cy="234.07" r="8.23"/><circle class="cls-5" cx="200.45" cy="246.17" r="8.23"/><circle class="cls-5" cx="523.2" cy="219.28" r="8.23"/></svg>