<svg id="Layer_1" data-name="Layer 1" xmlns="http://www.w3.org/2000/svg" viewBox="0 0 1138.38 529.33"><defs><style>.cls-1{fill:#f2f2f2;}.cls-2{fill:#fff;}.cls-3{fill:#e6e6e6;}.cls-4{fill:#3f3d56;}.cls-5{fill:#ff7901;}</style></defs><path class="cls-1" d="M148,526A197.88,197.88,0,0,1,0,331.49c.17-11,1.33-22.32,6-32.34s13.26-18.68,24.05-21.06c11.77-2.59,24.19,2.71,33,11s14.52,19.17,19.81,30C114.7,384.28,138.91,454.27,148,526.29Z"/><path class="cls-2" d="M24.71,280.27,47,331l22.34,50.76c7.08,16.07,14.14,32.15,21.45,48.12s14.74,31.55,22.74,47,16.48,30.63,25.69,45.38c1.15,1.83,2.3,3.66,3.47,5.49.81,1.26,2.84.09,2-1.18-9.39-14.64-18-29.74-26.15-45.12s-15.72-31.06-23-46.85-14.42-31.89-21.47-47.9L51.84,336.16,29.5,285.4l-2.78-6.31c-.6-1.37-2.62-.19-2,1.18Z"/><path class="cls-1" d="M138.71,526.38a115.79,115.79,0,0,1-129.36-61c-2.89-5.78-5.33-11.95-5.63-18.4s1.84-13.29,6.8-17.43c5.41-4.52,13.29-5.13,20.08-3.2s12.71,6,18.38,10.22c34.16,25.26,65.63,55.06,89.78,90Z"/><path class="cls-2" d="M8.34,432.08l25.3,20.32,25.3,20.32c8,6.44,16,12.88,24.12,19.2s16.18,12.39,24.5,18.26,16.82,11.46,25.59,16.63c1.09.64,2.18,1.28,3.28,1.91.77.44,1.5-.72.73-1.16-8.82-5.06-17.39-10.56-25.75-16.36S94.86,499.32,86.8,493.09,70.71,480.43,62.72,474l-25.2-20.25-25.3-20.32-3.15-2.53c-.69-.55-1.41.61-.73,1.16Z"/><path class="cls-1" d="M931.94,524.76a276,276,0,0,0,206.41-271.29c-.24-15.4-1.86-31.12-8.33-45.1s-18.5-26.06-33.54-29.37c-16.42-3.61-33.74,3.77-46,15.3s-20.25,26.73-27.63,41.83c-44.45,91-78.22,188.55-90.86,289Z"/><path class="cls-2" d="M1103.93,182l-31.16,70.78-31.15,70.78c-9.86,22.42-19.71,44.84-29.91,67.11-10.11,22.07-20.56,44-31.71,65.56S957,499,944.18,519.54q-2.4,3.84-4.85,7.65c-1.13,1.76-4,.13-2.81-1.64,13.09-20.41,25.16-41.47,36.47-62.91s21.92-43.32,32.12-65.35,20.1-44.46,29.93-66.79l31-70.52,31.16-70.78,3.87-8.81c.84-1.92,3.65-.26,2.82,1.64Z"/><path class="cls-1" d="M944.94,525.25a161.47,161.47,0,0,0,180.4-85.13c4-8.06,7.44-16.66,7.85-25.66s-2.57-18.52-9.49-24.3c-7.54-6.31-18.53-7.15-28-4.47S1078,394.1,1070.07,400c-47.63,35.22-91.51,76.78-125.19,125.51Z"/><path class="cls-2" d="M1126.75,393.74l-35.28,28.34-35.28,28.34c-11.17,9-22.34,18-33.65,26.77s-22.55,17.28-34.16,25.47-23.46,16-35.68,23.18q-2.28,1.35-4.58,2.67c-1.07.61-2.09-1-1-1.61,12.31-7.07,24.26-14.74,35.92-22.82s23.07-16.57,34.31-25.25,22.45-17.66,33.58-26.6q17.58-14.12,35.15-28.24l35.28-28.33,4.39-3.53c1-.77,2,.85,1,1.61Z"/><polygon class="cls-3" points="577.23 520.5 418.53 520.5 423.91 450.57 571.85 450.57 577.23 520.5"/><rect class="cls-3" x="410.46" y="512.43" width="177.54" height="16.14"/><path class="cls-4" d="M801.84,0H195.26a16.14,16.14,0,0,0-16.14,16.14h0V386H818V16.14A16.14,16.14,0,0,0,801.84,0Z"/><path class="cls-3" d="M179.12,386v60.52a16.14,16.14,0,0,0,16.14,16.14H801.84A16.14,16.14,0,0,0,818,446.53h0V386Z"/><rect class="cls-3" x="211.4" y="33.62" width="575.65" height="322.79"/><circle class="cls-4" cx="499.22" cy="423.67" r="16.14"/><circle class="cls-2" cx="229.35" cy="44.2" r="3.06"/><circle class="cls-2" cx="240.98" cy="44.2" r="3.06"/><circle class="cls-2" cx="252.6" cy="44.2" r="3.06"/><rect class="cls-2" x="226.29" y="54.6" width="544.17" height="271.09"/><path class="cls-3" d="M262.46,95.84a1.92,1.92,0,0,0-1.92,1.92V195a1.94,1.94,0,0,0,1.92,1.93h112.3a1.94,1.94,0,0,0,1.92-1.93V97.76a1.92,1.92,0,0,0-1.92-1.92Z"/><path class="cls-3" d="M442.77,96.15a1.92,1.92,0,0,0-1.93,1.92V195a1.93,1.93,0,0,0,1.93,1.93H554.71a1.94,1.94,0,0,0,1.92-1.93V98.07a1.92,1.92,0,0,0-1.92-1.92Z"/><path class="cls-3" d="M621.18,95.13a1.94,1.94,0,0,0-1.92,1.93V195a1.94,1.94,0,0,0,1.92,1.93H734.29a1.94,1.94,0,0,0,1.92-1.93V97.06a1.94,1.94,0,0,0-1.92-1.93Z"/><path class="cls-3" d="M264.51,245.06a4,4,0,0,0,0,7.95H370.09a4,4,0,0,0,0-7.95Z"/><path class="cls-5" d="M264.51,264a4,4,0,0,0,0,7.95h47.54a4,4,0,0,0,0-7.95Z"/><path class="cls-3" d="M446.76,245.06a4,4,0,0,0,0,7.95H552.34a4,4,0,0,0,0-7.95Z"/><path class="cls-5" d="M446.76,264a4,4,0,1,0,0,7.95H494.3a4,4,0,0,0,0-7.95Z"/><path class="cls-3" d="M624.45,245.06a4,4,0,0,0,0,7.95H730a4,4,0,0,0,0-7.95Z"/><path class="cls-3" d="M264.51,225.52a4,4,0,0,0,0,8H370.09a4,4,0,0,0,0-8Z"/><path class="cls-3" d="M446.76,225.52a4,4,0,0,0,0,8H552.34a4,4,0,0,0,0-8Z"/><path class="cls-3" d="M624.45,225.52a4,4,0,0,0,0,8H730a4,4,0,0,0,0-8Z"/><path class="cls-5" d="M624.45,264a4,4,0,1,0,0,7.95H672a4,4,0,1,0,0-7.95Z"/><path class="cls-4" d="M1004.68,226a2.41,2.41,0,0,0,2.41-2.41h0V197.82a2.38,2.38,0,0,0-2.36-2.41,2.45,2.45,0,0,0-.85.15V166.47a8,8,0,0,0-8-8H733a8,8,0,0,0-8,8h0V519.32a8,8,0,0,0,8,8H995.84a8,8,0,0,0,8-8V262a2.38,2.38,0,0,0,3.07-1.41,2.23,2.23,0,0,0,.14-.85V234a2.38,2.38,0,0,0-2.36-2.41,2.06,2.06,0,0,0-.85.15V225.8A2.22,2.22,0,0,0,1004.68,226Z"/><path class="cls-2" d="M979.77,174.11a8,8,0,0,1,8,8h0v321.5a8,8,0,0,1-8,8H749.09a8,8,0,0,1-8-8V182.15a8,8,0,0,1,8-8H979.77"/><rect class="cls-5" x="762.32" y="216.28" width="197.56" height="19.63"/><rect class="cls-3" x="762.32" y="262.53" width="197.56" height="7.44"/><rect class="cls-3" x="762.32" y="285.23" width="197.56" height="7.44"/><rect class="cls-3" x="762.32" y="308.21" width="102.08" height="7.44"/><rect class="cls-3" x="762.32" y="331.6" width="197.56" height="7.44"/><rect class="cls-3" x="762.32" y="355" width="197.56" height="7.44"/><rect class="cls-3" x="762.32" y="378.39" width="98.66" height="7.44"/><rect class="cls-3" x="762.32" y="401.78" width="197.56" height="7.44"/><rect class="cls-3" x="762.32" y="425.17" width="197.56" height="7.44"/><rect class="cls-5" x="897.73" y="453.86" width="62.39" height="20.51"/><path class="cls-4" d="M253.94,298.42h-1.35v-45a26.18,26.18,0,0,0-26.18-26.18H130.48a26.18,26.18,0,0,0-26.17,26.18h0V501.65a26.18,26.18,0,0,0,26.17,26.18h95.93a26.18,26.18,0,0,0,26.18-26.18V330.42h1.35Z"/><path class="cls-2" d="M246.73,251.59V501.07a19.55,19.55,0,0,1-19.55,19.55H131.07a19.55,19.55,0,0,1-19.55-19.55V251.59A17.62,17.62,0,0,1,129.14,234h13.57a9.54,9.54,0,0,0,.41,8,9.33,9.33,0,0,0,7.63,4.63h55.92A9.33,9.33,0,0,0,214.3,242a9.55,9.55,0,0,0,.41-8h14.4A17.62,17.62,0,0,1,246.73,251.59Z"/><rect class="cls-5" x="126.25" y="304.68" width="105.36" height="10.47"/><rect class="cls-3" x="126.25" y="329.34" width="105.36" height="3.97"/><rect class="cls-3" x="126.25" y="341.45" width="105.36" height="3.97"/><rect class="cls-3" x="126.25" y="353.7" width="54.44" height="3.97"/><rect class="cls-3" x="126.25" y="366.18" width="105.36" height="3.97"/><rect class="cls-3" x="126.25" y="378.66" width="105.36" height="3.97"/><rect class="cls-3" x="126.25" y="391.13" width="52.62" height="3.97"/><rect class="cls-3" x="126.25" y="403.61" width="105.36" height="3.97"/><rect class="cls-3" x="126.25" y="416.08" width="105.36" height="3.97"/><rect class="cls-5" x="198.47" y="431.38" width="33.27" height="10.94"/></svg>