<svg width="32" height="32" viewBox="0 0 32 32" fill="none" xmlns="http://www.w3.org/2000/svg">
<g clip-path="url(#clip0_371_551)">
<path d="M16 -0.0339966C7.158 -0.0339966 -0.0339966 7.158 -0.0339966 16C-0.0339966 24.842 7.158 32.034 16 32.034C24.842 32.034 32.034 24.842 32.034 16C32.034 7.158 24.842 -0.0339966 16 -0.0339966ZM16 30.966C7.748 30.966 1.034 24.252 1.034 16C1.034 7.748 7.748 1.034 16 1.034C24.252 1.034 30.966 7.748 30.966 16C30.966 24.252 24.252 30.966 16 30.966Z" fill="#FF7900"/>
<path d="M19.515 11.952C18.837 11.952 18.335 12.123 17.942 12.339C17.879 12.115 17.672 11.951 17.428 12H14.444C14.149 11.951 13.91 12.19 14.001 12.5V23.5C13.91 23.78 14.149 24.02 14.444 24H17.428C17.723 24.02 17.962 23.78 17.962 23.485L17.961 16.837C17.96 16.834 17.949 16.516 18.15 16.297C18.311 16.123 18.588 16.034 18.971 16.034C19.609 16.034 19.893 16.295 19.999 16.879V23.485C19.894 23.78 20.133 24.02 20.428 24H23.573C23.868 24.02 24.107 23.78 24.001 23.485V16.657C24.106 13.185 21.633 11.952 19.515 11.952ZM23.038 23H20.962V16.879C20.962 15.698 20.199 14.966 18.972 14.966C18.278 14.966 17.738 15.17 17.366 15.572C16.849 16.132 16.889 16.842 17 17V23H14.978V13.02H16.894V13.356C16.8932 13.4561 16.9207 13.5544 16.9733 13.6396C17.0258 13.7248 17.1014 13.7934 17.1912 13.8376C17.281 13.8817 17.3815 13.8997 17.481 13.8893C17.5806 13.879 17.6752 13.8407 17.754 13.779L17.894 13.671C18.299 13.352 18.718 13.021 19.516 13.021C20.342 13.021 23.039 13.284 23.039 16.658V23H23.038Z" fill="#FF7900"/>
<path d="M11 6.96606C9.878 6.96606 8.966 7.87806 8.966 9.00006C8.966 10.1221 9.878 11.0341 11 11.0341C12.122 11.0341 13.034 10.1221 13.034 9.00006C13.034 7.87806 12.122 6.96606 11 6.96606ZM11 9.96606C10.468 9.96606 10.034 9.53206 10.034 9.00006C10.034 8.46806 10.468 8.03406 11 8.03406C11.532 8.03406 11.966 8.46806 11.966 9.00006C11.966 9.53206 11.532 9.96606 11 9.96606Z" fill="#FF7900"/>
<path d="M12.428 11.951H9.46003C9.16503 11.951 8.92603 12.19 9.00003 12.5V23.5C8.92603 23.78 9.16503 24.0201 9.46003 24H12.428C12.723 24.0201 12.962 23.7801 12.962 23.4851V12.485C12.962 12.3434 12.9058 12.2076 12.8056 12.1075C12.7055 12.0073 12.5697 11.951 12.428 11.951ZM12 23H9.99403V13.0201H12V23Z" fill="#FF7900"/>
</g>
<defs>
<clipPath id="clip0_371_551">
<rect width="32" height="32" fill="white"/>
</clipPath>
</defs>
</svg>
