<svg id="Layer_1" data-name="Layer 1" xmlns="http://www.w3.org/2000/svg" viewBox="0 0 1920 1080"><defs><style>.cls-1{opacity:0.1;}.cls-2{fill:#e8985e;}.cls-3,.cls-6{fill:#e8aa42;}.cls-4{fill:#ff7900;}.cls-5{fill:#f9e1d0;}.cls-6{opacity:0.5;}</style></defs><title>Logo</title><g class="cls-1"><path class="cls-2" d="M826.82,453q22.51,0,38-15.41t15.45-37.89q0-22.71-15.33-38t-38.09-15.3h-19.4V469.25a15.52,15.52,0,0,1-4.56,11.64,16.08,16.08,0,0,1-11.73,4.44q-7.2,0-11.62-4.44c-3-2.95-4.43-6.84-4.43-11.63V330.12a16.38,16.38,0,0,1,16-16.07h35.69q36.16,0,61,24.76t24.8,60.88q0,36.12-24.8,60.88t-61,24.76q-7.19,0-11.62-4.43t-4.43-11.62a16.11,16.11,0,0,1,4.43-11.74A15.5,15.5,0,0,1,826.82,453Z"/><path class="cls-2" d="M958.09,330.12V469.26a15.52,15.52,0,0,1-4.55,11.63,16.12,16.12,0,0,1-11.74,4.44,15.71,15.71,0,0,1-11.62-4.44c-2.95-2.95-4.43-6.84-4.43-11.63V330.12a15.22,15.22,0,0,1,16-16.07,16.12,16.12,0,0,1,11.74,4.44A15.54,15.54,0,0,1,958.09,330.12Z"/><path class="cls-2" d="M1075.23,383.76h51.26a15.26,15.26,0,0,1,11.26,4.91,15.84,15.84,0,0,1,4.79,11.38q0,35.93-24.91,60.84t-60.85,24.92q-35.93,0-60.84-24.95T971,399.93q0-36,24.92-60.93t60.84-24.95q38.09,0,64,28.87,4.54,5.06,4.55,10.59a15.82,15.82,0,0,1-5,11.67,16.28,16.28,0,0,1-11.74,4.93q-6.46,0-11.73-5.81-15.81-17.91-40-17.91-22.76,0-38.09,15.37t-15.33,38.17q0,22.57,15.45,38.05t38,15.49a53.11,53.11,0,0,0,51-37.37h-32.58a15.5,15.5,0,0,1-11.62-4.55,16.1,16.1,0,0,1-4.43-11.74q0-7.19,4.43-11.62T1075.23,383.76Z"/><path class="cls-2" d="M1186.85,330.12V469.26a15.52,15.52,0,0,1-4.55,11.63,16.09,16.09,0,0,1-11.74,4.44q-7.18,0-11.61-4.44c-3-2.95-4.44-6.84-4.44-11.63V330.12a15.73,15.73,0,0,1,4.44-11.63q4.42-4.44,11.61-4.44a16.09,16.09,0,0,1,11.74,4.44A15.54,15.54,0,0,1,1186.85,330.12Z"/><path class="cls-2" d="M1269.73,469.25q0,7.2-4.43,11.64t-11.61,4.44a16.09,16.09,0,0,1-11.74-4.44,15.51,15.51,0,0,1-4.55-11.64V346.39h-21.08A15.59,15.59,0,0,1,1200,330.1a15.48,15.48,0,0,1,4.55-11.62,16.14,16.14,0,0,1,11.74-4.43H1292a16.14,16.14,0,0,1,11.74,4.43,15.52,15.52,0,0,1,4.55,11.62A15.59,15.59,0,0,1,1292,346.39h-22.28Z"/><path class="cls-2" d="M1518.86,485.33h-10.54q-22,0-36.89-14.87t-14.85-36.95V330.12q0-7.19,4.43-11.63t11.61-4.44a16.09,16.09,0,0,1,11.74,4.44,15.51,15.51,0,0,1,4.55,11.64V433.55A19.24,19.24,0,0,0,1508.32,453h10.54a15.52,15.52,0,0,1,11.62,4.55,16.15,16.15,0,0,1,4.43,11.74,15.21,15.21,0,0,1-16.05,16.05Z"/></g><path class="cls-3" d="M826.82,453q22.51,0,38-15.41t15.45-37.89q0-22.71-15.33-38t-38.09-15.3h-19.4V469.25a15.52,15.52,0,0,1-4.56,11.64,16.08,16.08,0,0,1-11.73,4.44q-7.2,0-11.62-4.44c-3-2.95-4.43-6.84-4.43-11.63V330.12a16.38,16.38,0,0,1,16-16.07h35.69q36.16,0,61,24.76t24.8,60.88q0,36.12-24.8,60.88t-61,24.76q-7.19,0-11.62-4.43t-4.43-11.62a16.11,16.11,0,0,1,4.43-11.74A15.5,15.5,0,0,1,826.82,453Z"/><path class="cls-3" d="M958.09,330.12V469.26a15.52,15.52,0,0,1-4.55,11.63,16.12,16.12,0,0,1-11.74,4.44,15.71,15.71,0,0,1-11.62-4.44c-2.95-2.95-4.43-6.84-4.43-11.63V330.12a15.22,15.22,0,0,1,16-16.07,16.12,16.12,0,0,1,11.74,4.44A15.54,15.54,0,0,1,958.09,330.12Z"/><path class="cls-3" d="M1075.23,383.76h51.26a15.26,15.26,0,0,1,11.26,4.91,15.84,15.84,0,0,1,4.79,11.38q0,35.93-24.91,60.84t-60.85,24.92q-35.93,0-60.84-24.95T971,399.93q0-36,24.92-60.93t60.84-24.95q38.09,0,64,28.87,4.54,5.06,4.55,10.59a15.82,15.82,0,0,1-5,11.67,16.28,16.28,0,0,1-11.74,4.93q-6.46,0-11.73-5.81-15.81-17.91-40-17.91-22.76,0-38.09,15.37t-15.33,38.17q0,22.57,15.45,38.05t38,15.49a53.11,53.11,0,0,0,51-37.37h-32.58a15.5,15.5,0,0,1-11.62-4.55,16.1,16.1,0,0,1-4.43-11.74q0-7.19,4.43-11.62T1075.23,383.76Z"/><path class="cls-3" d="M1186.85,330.12V469.26a15.52,15.52,0,0,1-4.55,11.63,16.09,16.09,0,0,1-11.74,4.44q-7.18,0-11.61-4.44c-3-2.95-4.44-6.84-4.44-11.63V330.12a15.73,15.73,0,0,1,4.44-11.63q4.42-4.44,11.61-4.44a16.09,16.09,0,0,1,11.74,4.44A15.54,15.54,0,0,1,1186.85,330.12Z"/><path class="cls-3" d="M1269.73,469.25q0,7.2-4.43,11.64t-11.61,4.44a16.09,16.09,0,0,1-11.74-4.44,15.51,15.51,0,0,1-4.55-11.64V346.39h-21.08A15.59,15.59,0,0,1,1200,330.1a15.48,15.48,0,0,1,4.55-11.62,16.14,16.14,0,0,1,11.74-4.43H1292a16.14,16.14,0,0,1,11.74,4.43,15.52,15.52,0,0,1,4.55,11.62A15.59,15.59,0,0,1,1292,346.39h-22.28Z"/><path class="cls-3" d="M1518.86,485.33h-10.54q-22,0-36.89-14.87t-14.85-36.95V330.12q0-7.19,4.43-11.63t11.61-4.44a16.09,16.09,0,0,1,11.74,4.44,15.51,15.51,0,0,1,4.55,11.64V433.55A19.24,19.24,0,0,0,1508.32,453h10.54a15.52,15.52,0,0,1,11.62,4.55,16.15,16.15,0,0,1,4.43,11.74,15.21,15.21,0,0,1-16.05,16.05Z"/><path class="cls-4" d="M844.89,699.18q0,7.2-4.43,11.64a15.75,15.75,0,0,1-11.62,4.44,16.14,16.14,0,0,1-11.74-4.44,15.55,15.55,0,0,1-4.55-11.64V576.32H791.47A15.59,15.59,0,0,1,775.18,560a15.52,15.52,0,0,1,4.55-11.62A16.14,16.14,0,0,1,791.47,544h75.7a16.15,16.15,0,0,1,11.74,4.43A15.52,15.52,0,0,1,883.46,560a15.59,15.59,0,0,1-16.29,16.29H844.89Z"/><path class="cls-4" d="M982.15,544q35.93,0,60.84,24.95t24.91,60.93q0,36-24.91,60.93t-60.84,25q-35.94,0-60.85-25t-24.91-60.93q0-36,24.91-60.93T982.15,544Zm0,32.34q-22.77,0-38.09,15.36t-15.33,38.18q0,22.56,15.45,38t38,15.49q22.51,0,38-15.49t15.46-38q0-22.56-15.46-38.05T982.15,576.32Z"/><path class="cls-4" d="M1184.8,613.69h51.26a15.23,15.23,0,0,1,11.26,4.91,15.78,15.78,0,0,1,4.79,11.38q0,35.92-24.91,60.84t-60.84,24.92q-35.94,0-60.85-25t-24.91-60.93q0-36,24.91-60.93T1166.36,544q38.09,0,64,28.87,4.54,5.05,4.55,10.59a15.82,15.82,0,0,1-5,11.67A16.29,16.29,0,0,1,1218.1,600q-6.46,0-11.74-5.81-15.81-17.91-40-17.91-22.77,0-38.09,15.36t-15.33,38.18q0,22.56,15.45,38t38,15.49a53.08,53.08,0,0,0,51-37.37H1184.8a15.52,15.52,0,0,1-11.62-4.55,16.15,16.15,0,0,1-4.43-11.74,15.21,15.21,0,0,1,16-16Z"/><path class="cls-4" d="M1349.85,715.74q-35.94,0-60.85-25t-24.91-60.93q0-36,24.91-60.93T1349.85,544a16.15,16.15,0,0,1,11.74,4.43,15.52,15.52,0,0,1,4.55,11.62,15.59,15.59,0,0,1-16.29,16.29,53.18,53.18,0,0,0-50.55,36.41h50.55a16.15,16.15,0,0,1,11.74,4.43,15.52,15.52,0,0,1,4.55,11.62,15.59,15.59,0,0,1-16.29,16.29h-51.26a53.55,53.55,0,0,0,51.26,38.33,15.59,15.59,0,0,1,16.29,16.29,15.48,15.48,0,0,1-4.55,11.61A16.12,16.12,0,0,1,1349.85,715.74Z"/><path class="cls-4" d="M1448.06,699.18q0,7.2-4.43,11.64a15.75,15.75,0,0,1-11.62,4.44,16.16,16.16,0,0,1-11.74-4.44,15.55,15.55,0,0,1-4.55-11.64V576.32h-21.08A15.59,15.59,0,0,1,1378.35,560a15.52,15.52,0,0,1,4.55-11.62,16.15,16.15,0,0,1,11.74-4.43h75.7a16.15,16.15,0,0,1,11.74,4.43,15.52,15.52,0,0,1,4.55,11.62,15.59,15.59,0,0,1-16.29,16.29h-22.28Z"/><path class="cls-4" d="M1728.33,715.74q-35.94,0-60.85-25t-24.91-60.93q0-36,24.91-60.93T1728.33,544a16.11,16.11,0,0,1,11.73,4.43,15.52,15.52,0,0,1,4.55,11.62,15.59,15.59,0,0,1-16.28,16.29,53.15,53.15,0,0,0-50.55,36.41h50.55a16.11,16.11,0,0,1,11.73,4.43,15.52,15.52,0,0,1,4.55,11.62,15.59,15.59,0,0,1-16.28,16.29h-51.27a53.58,53.58,0,0,0,51.27,38.33,15.59,15.59,0,0,1,16.28,16.29,15.48,15.48,0,0,1-4.55,11.61A16.08,16.08,0,0,1,1728.33,715.74Z"/><path class="cls-4" d="M1834,664.4a18.51,18.51,0,0,0,5.75,13.08,18,18,0,0,0,13.06,5.39q7.55,0,12.1,4.44t4.55,11.87a15.55,15.55,0,0,1-4.55,11.64,16.16,16.16,0,0,1-11.74,4.44q-22.05,0-36.77-14.88t-14.73-37v-13.2a16.38,16.38,0,0,1,16-16.08,29,29,0,1,0-28.75-29v94.07a15.55,15.55,0,0,1-4.55,11.64,16.16,16.16,0,0,1-11.74,4.44,15.58,15.58,0,0,1-16.05-16.08v-94q0-25.9,17.61-43.54T1817.68,544q25.86,0,43.59,17.63T1879,605.15a59.58,59.58,0,0,1-12.46,37.18A60.91,60.91,0,0,1,1834,664.4Z"/><path class="cls-4" d="M1666.71,751.42a15.52,15.52,0,0,1-4.55,11.62,16.15,16.15,0,0,1-11.74,4.43H1649q-21.8,0-36.77-15t-15-36.77V638.59h-64.92l.15,61q0,7.21-4.52,11.66t-11.85,4.45a16.62,16.62,0,0,1-12-4.44,14.34,14.34,0,0,1-3.77-5.93,15,15,0,0,0,3.34,5,15.71,15.71,0,0,0,11.62,4.44,16.9,16.9,0,0,0,9.44-2.59,17.57,17.57,0,0,1-8.9,2.19,16.78,16.78,0,0,1-12-4.44,15,15,0,0,1-3.82-5.76,18.51,18.51,0,0,1-.52-4.5l-.36-142.42v0a18.73,18.73,0,0,0-5.85-13.81,20.64,20.64,0,0,0-14.48-6l-15,.15h0c-14.33-.1-28.15-5.09-37.94-15S1411,500.33,1411,485.8V429a61.34,61.34,0,0,1-29,7.19,15.52,15.52,0,0,1-11.62-4.55,16.15,16.15,0,0,1-4.43-11.74,15.21,15.21,0,0,1,16-16.05,29.12,29.12,0,1,0-28.75-29.18v94.07a15.51,15.51,0,0,1-4.55,11.64,16.11,16.11,0,0,1-11.73,4.43q-7.18,0-11.62-4.43T1321,468.77v-94q0-25.9,17.6-43.54T1382,313.57q25.88,0,43.6,17.63t17.72,43.53v111a19,19,0,0,0,5.51,13.79c3.22,3.29,7.84,5,12.58,5.35h0l17.71.51q22.33,0,37.67,15t15.34,36.77v49.09h65.06V559.61q0-7.22,4.44-11.66t11.61-4.45a16.15,16.15,0,0,1,11.74,4.43,15.54,15.54,0,0,1,4.55,11.63V715.7a19.24,19.24,0,0,0,19.4,19.43h1.44a15.59,15.59,0,0,1,16.29,16.29Z"/><path class="cls-5" d="M40.49,169.47H595.2A132.35,132.35,0,0,1,727.55,301.82V856.53a0,0,0,0,1,0,0H172.84A132.35,132.35,0,0,1,40.49,724.18V169.47A0,0,0,0,1,40.49,169.47Z"/><path class="cls-6" d="M496.82,373.05a202.09,202.09,0,0,1,56,140c0,111.79-90.32,202.42-201.73,202.42H245.31a30,30,0,0,1-14.79-3.89l163.64,145H725.24a2.31,2.31,0,0,0,2.31-2.31V577.49Z"/><path class="cls-4" d="M351.08,310.58H245.31a30.09,30.09,0,0,0-30.09,30.09V685.33a30.09,30.09,0,0,0,30.09,30.09H351.08c111.41,0,201.73-90.63,201.73-202.42S462.49,310.58,351.08,310.58Zm89.26,126.63q-6.76,6-17.44,6H389.8v161a19.38,19.38,0,0,1-6.58,15.24q-6.6,5.8-17.26,5.82t-17.44-5.82a19.13,19.13,0,0,1-6.77-15.24v-161H310.43q-10.67,0-17.43-6a19.55,19.55,0,0,1-6.77-15.38A19.09,19.09,0,0,1,293,406.61q6.75-5.81,17.43-5.81H422.9q10.68,0,17.44,5.81a19.11,19.11,0,0,1,6.76,15.22A19.58,19.58,0,0,1,440.34,437.21Z"/></svg>