<svg xmlns="http://www.w3.org/2000/svg" viewBox="0 0 96 96"><defs><style>.cls-1{fill:#e8aa42;}.cls-2{fill:#f9e1d0;}</style></defs><g id="Layer_2" data-name="Layer 2"><g id="Layer_1-2" data-name="Layer 1"><circle class="cls-1" cx="48" cy="48" r="48"/><path class="cls-2" d="M48.75,41.25A11.48,11.48,0,0,0,60.21,29.8a11.46,11.46,0,1,0-22.91,0A11.57,11.57,0,0,0,48.75,41.25Z"/><path class="cls-2" d="M48.75,66.88h0C50.47,65.74,51,65.44,51,63.67V41.17C51,39.39,50,38,48.75,38h0c-1.26,0-2.29,1.43-2.29,3.21v22.5C46.46,65.44,47,65.74,48.75,66.88Z"/><path class="cls-2" d="M54.34,45.51h0a1.66,1.66,0,0,0,1.37,1.71c12.34,1.59,21.42,6.92,21.42,13.25,0,7.6-13,13.75-29.13,13.75S18.87,68.07,18.87,60.47c0-6.58,9.81-12.08,22.91-13.42a1.66,1.66,0,0,0,1.39-1.71h0a1.6,1.6,0,0,0-1.64-1.71C26.4,45.19,15,52.14,15,60.47,15,70,29.77,77.66,48,77.66S81,70,81,60.47c0-8-10.63-14.8-25-16.66A1.6,1.6,0,0,0,54.34,45.51Z"/></g></g></svg>