<svg width="28" height="31" viewBox="0 0 28 31" fill="none" xmlns="http://www.w3.org/2000/svg">
<path d="M26.4634 13.7514C26.4634 17.3672 24.6436 20.6411 22.3799 23.315C19.9456 26.1902 16.9982 28.3715 15.2489 29.5375C14.3233 30.1542 13.1402 30.1542 12.2146 29.5375C10.4653 28.3715 7.51781 26.1902 5.08355 23.315C2.81989 20.6411 1 17.3672 1 13.7514C1 6.70899 6.70018 1 13.7317 1C20.7633 1 26.4634 6.70899 26.4634 13.7514Z" stroke="#FF7900" stroke-width="1.5" stroke-linecap="round" stroke-linejoin="round"/>
<path d="M18.683 13.7315C18.683 16.4661 16.4663 18.6827 13.7317 18.6827C10.9972 18.6827 8.78052 16.4661 8.78052 13.7315C8.78052 10.997 10.9972 8.78027 13.7317 8.78027C16.4663 8.78027 18.683 10.997 18.683 13.7315Z" stroke="#FF7900" stroke-width="1.5" stroke-linecap="round" stroke-linejoin="round"/>
</svg>
