<svg width="26" height="29" viewBox="0 0 26 29" fill="none" xmlns="http://www.w3.org/2000/svg">
<path fill-rule="evenodd" clip-rule="evenodd" d="M21.3799 22.315C23.6436 19.6411 25.4634 16.3672 25.4634 12.7514C25.4634 5.70899 19.7633 0 12.7317 0C5.70018 0 0 5.70899 0 12.7514C0 16.3672 1.81989 19.6411 4.08355 22.315C6.51781 25.1902 9.46526 27.3715 11.2146 28.5375C12.1402 29.1542 13.3233 29.1542 14.2489 28.5375C15.9982 27.3715 18.9456 25.1902 21.3799 22.315ZM12.7317 17.683C15.4663 17.683 17.683 15.4663 17.683 12.7317C17.683 9.99726 15.4663 7.78052 12.7317 7.78052C9.99718 7.78052 7.78052 9.99726 7.78052 12.7317C7.78052 15.4663 9.99718 17.683 12.7317 17.683Z" fill="#FF7900"/>
</svg>
