<svg width="32" height="32" viewBox="0 0 32 32" fill="none" xmlns="http://www.w3.org/2000/svg">
<path d="M23.3279 11.0458C23.4388 10.8405 23.5302 10.6252 23.6009 10.4028C23.6336 10.2997 23.6343 10.189 23.6028 10.0855C23.5713 9.9819 23.5091 9.89034 23.4245 9.82285C23.3399 9.75536 23.2368 9.71512 23.1289 9.70744C23.0209 9.69975 22.9132 9.72499 22.8199 9.77982C22.3075 10.0842 21.7528 10.311 21.1739 10.4528C20.4711 9.81859 19.5585 9.467 18.6119 9.46582C18.0976 9.46622 17.5887 9.57045 17.1157 9.77228C16.6426 9.97411 16.2152 10.2694 15.8591 10.6404C15.5029 11.0114 15.2254 11.4505 15.043 11.9313C14.8607 12.4122 14.7773 12.925 14.7979 13.4388C12.5489 13.1557 10.4952 12.0177 9.06288 10.2608C9.008 10.1943 8.93787 10.1419 8.85844 10.1083C8.77901 10.0746 8.69263 10.0606 8.60664 10.0675C8.52064 10.0744 8.43758 10.1019 8.3645 10.1477C8.29143 10.1936 8.23049 10.2564 8.18688 10.3308C7.8589 10.8937 7.68064 11.5313 7.66908 12.1827C7.65753 12.8341 7.81307 13.4776 8.12088 14.0518C8.04539 14.0646 7.97286 14.091 7.90688 14.1298C7.82603 14.1814 7.75946 14.2525 7.71332 14.3365C7.66718 14.4206 7.64296 14.5149 7.64288 14.6108C7.64288 15.7458 8.14788 16.7878 8.96188 17.4958L8.92688 17.5308C8.86543 17.6003 8.82315 17.6847 8.80421 17.7755C8.78527 17.8663 8.79033 17.9605 8.81888 18.0488C8.98862 18.5783 9.27203 19.0644 9.64929 19.4729C10.0265 19.8814 10.4885 20.2025 11.0029 20.4138C9.94647 20.9292 8.76424 21.1301 7.59688 20.9928C7.47688 20.9806 7.35622 21.0085 7.2538 21.0722C7.15137 21.1359 7.07297 21.2318 7.03088 21.3448C6.99046 21.4587 6.9897 21.5829 7.02873 21.6972C7.06775 21.8116 7.14428 21.9094 7.24588 21.9748C8.83289 22.9934 10.6791 23.5345 12.5649 23.5338C18.7449 23.5338 22.4389 18.5138 22.4389 13.6608L22.4379 13.4968C23.0368 13.0292 23.5571 12.4688 23.9789 11.8368C24.0428 11.7413 24.0742 11.6277 24.0685 11.5129C24.0628 11.3981 24.0202 11.2882 23.9472 11.1995C23.8742 11.1108 23.7745 11.0479 23.663 11.0202C23.5514 10.9925 23.4339 11.0015 23.3279 11.0458ZM21.5829 12.8008C21.5103 12.853 21.452 12.9225 21.4132 13.0031C21.3744 13.0836 21.3564 13.1726 21.3609 13.2618C21.3669 13.3938 21.3699 13.5278 21.3699 13.6598C21.3699 17.9878 18.0769 22.4648 12.5659 22.4648C11.583 22.4653 10.607 22.3003 9.67888 21.9768C10.7905 21.7638 11.8347 21.2871 12.7239 20.5868C12.8104 20.5186 12.8738 20.4253 12.9053 20.3196C12.9368 20.214 12.9349 20.1012 12.8999 19.9967C12.8649 19.8922 12.7984 19.8011 12.7097 19.7358C12.6209 19.6704 12.5141 19.6341 12.4039 19.6318C11.9727 19.6236 11.5495 19.5141 11.1684 19.3123C10.7873 19.1104 10.459 18.8219 10.2099 18.4698C10.4629 18.4528 10.7109 18.4108 10.9519 18.3458C11.0685 18.3146 11.1711 18.2448 11.243 18.1477C11.3148 18.0507 11.3517 17.9322 11.3475 17.8115C11.3433 17.6908 11.2984 17.5751 11.22 17.4833C11.1416 17.3915 11.0344 17.3289 10.9159 17.3058C10.4289 17.2068 9.97802 16.9772 9.61146 16.6416C9.24491 16.3061 8.97648 15.8772 8.83488 15.4008C9.10088 15.4678 9.37388 15.5068 9.64688 15.5158C9.88188 15.5148 10.0999 15.3708 10.1729 15.1448C10.2459 14.9188 10.1599 14.6698 9.96088 14.5378C9.49035 14.2243 9.12806 13.7732 8.92349 13.2461C8.71892 12.719 8.68204 12.1417 8.81788 11.5928C10.5549 13.3751 12.9004 14.4365 15.3859 14.5648C15.5619 14.5658 15.7159 14.5028 15.8229 14.3738C15.9299 14.2448 15.9709 14.0738 15.9329 13.9098C15.7961 13.3208 15.8573 12.7032 16.1069 12.1524C16.3566 11.6017 16.7808 11.1486 17.3139 10.8633C17.847 10.5779 18.4593 10.4762 19.056 10.574C19.6527 10.6717 20.2006 10.9633 20.6149 11.4038C20.677 11.4701 20.7549 11.5194 20.8413 11.5472C20.9277 11.575 21.0198 11.5804 21.1089 11.5628C21.2739 11.5298 21.4369 11.4918 21.5979 11.4478C21.5253 11.5022 21.4499 11.5526 21.3719 11.5988C21.2682 11.6623 21.1892 11.7593 21.148 11.8737C21.1068 11.9881 21.1058 12.1131 21.1451 12.2282C21.1845 12.3433 21.2619 12.4415 21.3645 12.5067C21.4672 12.5719 21.589 12.6001 21.7099 12.5868L21.8919 12.5638C21.7917 12.6464 21.6886 12.7254 21.5829 12.8008Z" fill="#FF7900"/>
<g clip-path="url(#clip0_371_562)">
<path d="M16 -0.0339966C7.15903 -0.0339966 -0.0349731 7.158 -0.0349731 16C-0.0349731 24.842 7.15903 32.034 16 32.034C24.841 32.034 32.035 24.842 32.035 16C32.035 7.158 24.841 -0.0339966 16 -0.0339966ZM16 30.966C7.74803 30.966 1.03503 24.252 1.03503 16C1.03503 7.748 7.74803 1.034 16 1.034C24.252 1.034 30.965 7.748 30.965 16C30.965 24.252 24.252 30.966 16 30.966Z" fill="#FF7900"/>
</g>
<defs>
<clipPath id="clip0_371_562">
<rect width="32" height="32" fill="white"/>
</clipPath>
</defs>
</svg>
