<svg width="11" height="20" viewBox="0 0 11 20" fill="none" xmlns="http://www.w3.org/2000/svg">
<path d="M9.50001 0.999918H6.83201C3.43401 0.965918 3.00001 3.06892 3.00001 5.34492V6.99992H1.50001C1.43221 6.99086 1.36324 6.99756 1.29845 7.01948C1.23366 7.04141 1.1748 7.07797 1.12643 7.12634C1.07807 7.1747 1.0415 7.23357 1.01958 7.29836C0.99765 7.36315 0.990955 7.43212 1.00001 7.49992V10.4999C0.990955 10.5677 0.99765 10.6367 1.01958 10.7015C1.0415 10.7663 1.07807 10.8251 1.12643 10.8735C1.1748 10.9219 1.23366 10.9584 1.29845 10.9804C1.36324 11.0023 1.43221 11.009 1.50001 10.9999H3.00001V18.4999C2.99168 18.5678 2.99898 18.6368 3.02136 18.7014C3.04374 18.7661 3.0806 18.8248 3.12913 18.873C3.17766 18.9213 3.23658 18.9578 3.30138 18.9798C3.36617 19.0018 3.43514 19.0087 3.50301 18.9999H6.55801C6.85301 19.0339 7.09201 18.7949 6.99801 18.4999L7.00001 10.9999H9.50001C9.56781 11.009 9.63678 11.0023 9.70157 10.9804C9.76636 10.9584 9.82523 10.9219 9.87359 10.8735C9.92196 10.8251 9.95852 10.7663 9.98045 10.7015C10.0024 10.6367 10.0091 10.5677 10 10.4999V7.49992C10.0091 7.43212 10.0024 7.36315 9.98045 7.29836C9.95852 7.23357 9.92196 7.1747 9.87359 7.12634C9.82523 7.07797 9.76636 7.04141 9.70157 7.01948C9.63678 6.99756 9.56781 6.99086 9.50001 6.99992H6.99701L7.00001 5.49992C7.09701 4.86092 7.09701 4.96492 7.69001 4.99992H9.47901C9.61801 4.96892 9.76601 4.98592 9.87001 4.88492C9.97401 4.78392 10.034 4.64592 9.99901 4.49992V1.49992C10.0082 1.43218 10.0017 1.36322 9.97991 1.29842C9.95811 1.23361 9.92164 1.17472 9.87335 1.12633C9.82505 1.07794 9.76623 1.04135 9.70148 1.01943C9.63672 0.997499 9.56777 0.990823 9.50001 0.999918ZM8.96501 3.94392L7.71101 3.89592C6.15801 3.89592 6.02801 4.73892 6.02801 5.60192L6.02401 7.49792C6.02388 7.56813 6.0376 7.63767 6.06437 7.70258C6.09115 7.76748 6.13046 7.82647 6.18006 7.87616C6.22966 7.92585 6.28857 7.96528 6.35343 7.99217C6.41828 8.01907 6.4878 8.03292 6.55801 8.03292H9.00001V9.96492H6.56001C6.41829 9.96492 6.28237 10.0211 6.18206 10.1213C6.08176 10.2214 6.02528 10.3572 6.02501 10.4989L6.02401 17.9999H4.00001V10.4999C4.00001 10.2049 3.79901 9.96592 3.50301 9.96592H2.00001V8.03392H3.50301C3.57318 8.03402 3.64268 8.0203 3.70754 7.99353C3.7724 7.96677 3.83134 7.92748 3.88101 7.87792C3.98101 7.77692 3.99901 7.64092 3.99901 7.49892V5.34392C3.99901 3.10192 4.45201 2.03392 6.83101 2.03392H8.96401V3.94392H8.96501Z" fill="#FF7900"/>
</svg>
